<?xml version="1.0" standalone="no"?>
<!DOCTYPE svg PUBLIC "-//W3C//DTD SVG 20010904//EN"
 "http://www.w3.org/TR/2001/REC-SVG-20010904/DTD/svg10.dtd">
<svg version="1.0" xmlns="http://www.w3.org/2000/svg"
 width="500.000000pt" height="500.000000pt" viewBox="0 0 500.000000 500.000000"
 preserveAspectRatio="xMidYMid meet">
<metadata>
Created by potrace 1.11, written by Peter Selinger 2001-2013
</metadata>
<g transform="translate(0.000000,500.000000) scale(0.100000,-0.100000)"
fill="#000000" stroke="none">
<path d="M2215 4984 c-502 -64 -944 -254 -1320 -567 -164 -136 -449 -462 -503
-574 -9 -18 -19 -33 -24 -33 -4 0 -8 -4 -8 -9 0 -5 -22 -47 -48 -93 -92 -160
-187 -399 -237 -597 -26 -104 -28 -116 -52 -271 -24 -154 -23 -618 2 -692 2
-7 6 -32 9 -55 6 -47 10 -67 38 -183 81 -343 238 -666 467 -960 91 -118 316
-340 439 -434 322 -245 721 -419 1097 -480 17 -2 66 -10 110 -17 50 -9 171
-13 325 -13 219 1 261 4 390 27 169 31 171 31 230 47 25 7 52 14 60 15 19 5
167 56 245 86 99 37 333 161 440 232 148 98 276 204 400 330 118 120 135 140
206 232 284 370 463 824 506 1280 15 157 9 474 -12 605 -77 482 -261 888 -574
1265 -30 36 -245 250 -286 285 -53 45 -218 165 -285 207 -213 135 -472 246
-719 308 -100 25 -124 29 -231 45 -36 6 -78 13 -95 16 -65 12 -472 11 -570 -2z
m493 -12 c39 -4 41 -6 25 -18 -10 -7 -28 -14 -39 -14 -24 0 -48 -23 -36 -34 4
-4 2 -6 -3 -5 -19 5 -55 -12 -49 -23 4 -6 2 -8 -3 -5 -6 4 -16 0 -23 -8 -7 -8
-19 -15 -26 -15 -8 0 -14 -4 -14 -10 0 -5 -5 -9 -12 -7 -6 1 -17 -9 -25 -23
-7 -14 -13 -19 -13 -11 0 9 -6 7 -19 -7 -10 -12 -21 -19 -25 -15 -3 3 -6 -1
-6 -10 0 -16 -12 -22 -33 -18 -5 1 -6 -3 -2 -9 3 -5 1 -10 -5 -10 -6 0 -8 -4
-5 -10 6 -9 -8 -14 -27 -11 -5 0 -7 -2 -7 -6 3 -17 -1 -36 -7 -31 -6 7 -64
-47 -64 -59 0 -5 -9 -15 -19 -23 -11 -7 -18 -17 -16 -21 3 -4 -2 -9 -10 -13
-8 -3 -15 -13 -15 -21 0 -9 -4 -13 -10 -10 -5 3 -10 -3 -10 -15 0 -12 -4 -18
-10 -15 -5 3 -10 -3 -10 -15 0 -12 -4 -18 -10 -15 -9 5 -15 -15 -11 -37 0 -5
-3 -8 -9 -8 -5 0 -17 -16 -26 -35 -9 -19 -21 -32 -27 -28 -5 3 -7 2 -4 -4 7
-11 -13 -74 -26 -84 -4 -3 -9 -19 -11 -34 -2 -16 -8 -31 -15 -33 -9 -3 -9 -8
1 -20 10 -12 10 -14 1 -8 -12 7 -17 -6 -16 -41 1 -7 -3 -10 -8 -8 -4 3 -8 -4
-8 -15 -1 -11 -1 -29 -2 -40 0 -12 -5 -18 -11 -14 -6 4 -6 -2 1 -15 8 -15 8
-21 1 -21 -6 0 -11 -17 -11 -37 0 -99 -2 -122 -13 -116 -6 4 -5 -1 3 -10 8
-10 11 -20 8 -24 -4 -3 -2 -14 4 -24 7 -14 6 -19 -2 -19 -8 0 -8 -4 -2 -12 6
-7 9 -22 7 -32 -7 -44 -8 -96 -2 -102 4 -3 5 -11 2 -18 -10 -26 -10 -86 0 -87
7 0 7 -2 0 -5 -15 -6 -6 -157 11 -198 6 -14 5 -17 -4 -11 -10 6 -11 3 -3 -12
6 -11 12 -30 14 -44 2 -13 7 -29 11 -36 4 -6 3 -15 -3 -18 -8 -5 -7 -12 2 -22
7 -9 11 -27 10 -41 -2 -14 0 -22 6 -18 6 3 14 1 18 -5 4 -7 3 -9 -3 -6 -11 7
-28 -22 -18 -31 3 -3 5 0 5 6 0 7 4 12 9 12 6 0 8 -9 6 -20 -2 -11 0 -20 6
-20 5 0 9 -5 9 -11 0 -5 -6 -7 -12 -4 -7 4 -4 -1 6 -9 11 -9 16 -16 12 -16 -5
0 -2 -8 5 -17 9 -11 10 -14 2 -9 -9 5 -11 2 -7 -8 3 -9 10 -16 15 -16 4 0 6
-6 3 -14 -3 -7 2 -21 11 -30 12 -12 13 -16 3 -16 -10 0 -10 -2 -1 -8 15 -9 35
-61 28 -72 -3 -4 2 -10 10 -14 8 -3 15 -17 15 -31 0 -14 5 -25 11 -25 6 0 9
-6 6 -14 -3 -7 0 -19 6 -25 7 -7 7 -11 1 -11 -11 0 -10 -63 1 -80 3 -6 0 -10
-7 -11 -7 0 -4 -4 7 -9 13 -6 15 -9 5 -9 -12 -1 -14 -13 -12 -57 3 -43 1 -55
-9 -49 -8 6 -10 4 -3 -6 12 -20 16 -81 4 -74 -13 8 -8 -18 5 -27 6 -5 5 -8 -2
-8 -8 0 -13 -13 -13 -29 0 -17 -5 -33 -11 -37 -7 -4 -8 -9 0 -17 7 -7 7 -16 0
-29 -5 -10 -7 -18 -3 -18 3 0 2 -6 -3 -12 -6 -7 -9 -22 -7 -33 1 -10 -2 -26
-9 -33 -6 -8 -10 -27 -9 -43 1 -16 -3 -29 -8 -29 -6 0 -8 -4 -5 -10 3 -5 0
-10 -9 -10 -11 0 -15 14 -15 58 -1 31 -1 66 -2 77 0 11 -5 23 -12 27 -9 6 -9
8 1 8 7 0 10 5 7 10 -4 6 -11 7 -17 4 -5 -4 -4 4 2 17 7 13 9 21 5 17 -12 -12
-35 12 -35 36 0 16 -2 18 -9 7 -7 -11 -11 -10 -19 6 -8 15 -19 19 -44 16 -22
-3 -29 -1 -20 5 11 7 10 10 -3 16 -9 3 -13 11 -9 17 3 6 3 14 -2 18 -5 3 -14
15 -20 26 -6 11 -22 22 -35 24 -23 3 -23 4 -4 12 16 6 14 8 -12 8 -18 1 -33 5
-33 10 0 5 -30 9 -67 10 -38 1 -69 6 -71 11 -2 6 -8 10 -13 10 -6 0 -7 -5 -3
-11 5 -8 1 -8 -13 0 -11 6 -23 7 -27 4 -3 -3 -6 -2 -6 4 0 6 -9 9 -22 5 -14
-3 -19 -1 -14 6 3 6 2 13 -4 17 -6 4 -7 11 -4 17 4 7 2 8 -5 4 -6 -4 -14 0
-18 11 -11 30 -50 66 -56 51 -3 -8 -6 -5 -7 7 -1 20 -1 20 -15 1 -12 -15 -15
-16 -15 -5 0 9 -7 16 -15 16 -8 0 -12 -4 -9 -9 3 -4 -11 -8 -31 -8 -24 0 -34
-4 -29 -11 4 -7 -1 -7 -16 1 -15 8 -20 8 -16 1 4 -6 1 -11 -8 -11 -8 0 -16 4
-18 9 -2 5 -16 11 -33 13 -16 1 -33 7 -37 13 -5 6 -8 5 -8 -2 0 -7 -9 -13 -20
-13 -11 0 -20 -5 -20 -11 0 -5 -5 -7 -10 -4 -6 3 -10 1 -10 -5 0 -7 -7 -10
-15 -6 -8 3 -14 2 -14 -2 3 -20 -4 -21 -31 -7 -16 8 -35 25 -41 36 -9 17 -13
19 -20 8 -5 -8 -9 -10 -9 -6 0 4 -10 3 -21 -4 -17 -9 -20 -8 -14 2 6 9 3 11
-8 6 -12 -5 -17 -1 -17 13 0 11 -5 20 -12 20 -6 0 -9 3 -5 6 9 9 -19 34 -38
34 -9 0 -14 3 -12 8 3 4 -11 8 -30 8 -23 1 -30 -1 -22 -7 10 -6 8 -9 -8 -9
-13 0 -23 -4 -23 -10 0 -5 -7 -10 -15 -10 -7 0 -19 -8 -24 -17 -6 -10 -11 -13
-11 -8 0 6 -5 3 -10 -5 -5 -8 -15 -15 -22 -15 -7 -1 -12 -7 -10 -14 1 -7 -2
-9 -8 -6 -6 4 -19 -2 -28 -13 -9 -10 -23 -17 -31 -14 -8 3 -11 0 -7 -7 4 -6 1
-11 -8 -11 -9 0 -16 -3 -16 -7 0 -5 -17 -9 -38 -11 -20 -1 -39 -7 -41 -13 -2
-7 -6 -6 -12 2 -7 11 -9 11 -9 1 0 -7 -5 -10 -10 -7 -6 3 -10 1 -10 -6 0 -8
-4 -8 -15 1 -14 12 -19 7 -16 -13 1 -5 -2 -6 -7 -3 -9 5 -42 -28 -42 -44 0 -5
-8 -7 -17 -4 -15 5 -15 4 -4 -4 15 -10 26 -46 12 -37 -4 2 -8 -2 -8 -10 0 -8
4 -12 8 -9 5 2 7 -11 5 -31 -1 -19 2 -35 6 -35 5 0 6 -4 3 -10 -3 -6 -1 -10 5
-10 7 0 8 -6 1 -18 -6 -11 -6 -24 -1 -32 5 -9 4 -20 -3 -29 -9 -12 -9 -13 1
-7 6 4 12 2 12 -3 0 -6 -4 -11 -8 -11 -4 0 -9 -12 -10 -27 -1 -15 -6 -29 -11
-32 -4 -3 -14 -23 -21 -43 -8 -20 -18 -34 -23 -31 -6 4 -8 -3 -4 -16 3 -12 -1
-28 -10 -36 -8 -8 -11 -15 -6 -15 4 0 1 -5 -7 -10 -12 -8 -12 -10 5 -10 19 -1
19 -1 2 -11 -14 -8 -17 -19 -13 -55 4 -30 2 -43 -5 -38 -7 4 -7 0 0 -15 6 -12
16 -30 22 -42 7 -15 7 -19 0 -15 -7 4 -8 1 -5 -8 3 -9 11 -16 17 -16 6 0 7 -3
4 -7 -4 -3 0 -14 9 -24 10 -11 12 -19 4 -24 -5 -3 -7 -11 -3 -18 6 -10 8 -22
15 -79 1 -10 6 -18 11 -18 5 0 4 -7 -3 -15 -7 -9 -8 -15 -2 -15 5 0 13 -7 16
-16 3 -8 2 -13 -3 -10 -5 3 -12 -5 -15 -19 -4 -14 -12 -25 -19 -25 -8 0 -7 -4
3 -10 13 -8 12 -10 -2 -10 -16 0 -22 -10 -20 -30 0 -3 -13 -7 -29 -8 -17 -1
-33 -3 -37 -5 -4 -1 -7 3 -7 8 0 6 6 9 13 9 6 -1 12 2 12 7 0 5 -5 9 -11 9 -5
0 -7 5 -4 10 4 6 11 8 16 5 5 -3 6 1 3 9 -3 9 -10 13 -15 10 -5 -3 -6 1 -3 9
3 9 -3 17 -16 20 -12 3 -19 10 -15 16 4 7 0 8 -11 4 -13 -5 -15 -3 -9 7 5 9 4
11 -3 6 -16 -10 -15 -46 1 -46 9 0 9 -2 -1 -9 -11 -7 -11 -9 2 -14 8 -3 17 -1
19 6 3 7 4 2 4 -10 -1 -12 -5 -19 -9 -17 -4 3 -8 0 -8 -6 0 -6 -4 -9 -9 -6 -5
3 -14 -1 -21 -9 -9 -11 -8 -19 4 -37 9 -12 16 -20 16 -16 0 4 13 3 29 -2 25
-7 29 -6 25 8 -5 15 -5 15 5 1 11 -17 -6 -69 -21 -69 -5 0 -8 -7 -8 -15 0 -51
-52 40 -122 215 -63 158 -122 382 -143 545 -4 28 -9 61 -11 75 -7 38 -12 427
-7 493 3 31 8 57 12 57 4 0 6 -17 4 -37 -2 -30 -1 -34 6 -18 7 14 10 16 11 5
2 -8 2 -19 1 -24 -1 -5 5 -4 13 4 11 8 16 9 16 1 0 -6 9 -11 19 -11 11 0 23
-4 26 -10 3 -5 17 -10 31 -10 14 0 22 -4 19 -10 -3 -5 1 -10 9 -10 9 0 16 -6
16 -12 0 -9 4 -8 10 2 8 12 10 10 10 -10 0 -15 5 -31 12 -38 9 -9 9 -12 0 -12
-7 0 -12 -9 -12 -20 0 -11 -5 -20 -12 -20 -21 0 1 -13 27 -15 14 -2 23 1 19 6
-3 5 2 9 10 9 12 0 15 10 14 40 -1 21 -5 37 -10 34 -4 -3 -8 1 -8 8 0 18 -82
108 -98 108 -7 0 -11 4 -8 8 2 4 -7 9 -20 10 -28 2 -57 26 -46 37 4 4 3 6 -3
5 -23 -5 -36 1 -29 13 4 6 -3 3 -16 -8 -13 -11 -20 -15 -16 -8 4 7 9 34 12 60
19 201 110 500 220 730 179 374 496 742 839 973 343 231 750 380 1135 416 36
4 66 8 68 9 5 4 355 2 400 -3z m-2091 -2408 c-3 -3 -12 -4 -19 -1 -8 3 -5 6 6
6 11 1 17 -2 13 -5z m4293 -654 c0 -42 -120 -377 -175 -490 -70 -143 -202
-350 -222 -350 -8 0 -12 4 -8 9 3 6 0 13 -7 18 -7 4 -20 17 -28 27 -13 18 -13
19 0 11 8 -4 6 1 -5 12 -40 40 -63 71 -58 77 4 3 -5 6 -18 6 -19 0 -21 2 -9
10 13 8 12 10 -3 10 -10 0 -15 5 -12 10 3 6 -3 10 -15 10 -12 0 -18 5 -15 10
3 6 0 10 -7 10 -8 0 -20 9 -28 20 -10 14 -16 16 -22 7 -5 -8 -8 -6 -8 6 0 10
-4 15 -10 12 -5 -3 -10 1 -10 10 0 12 -5 15 -16 11 -11 -4 -15 -2 -11 8 4 9 0
12 -12 9 -10 -2 -25 3 -34 11 -8 9 -23 16 -31 16 -9 0 -16 5 -16 10 0 6 -6 10
-12 8 -7 -1 -23 3 -35 10 -13 7 -23 9 -23 5 0 -4 -7 2 -15 13 -15 19 -15 19
-9 -1 5 -19 5 -19 -10 -1 -9 12 -23 17 -36 13 -11 -3 -22 -1 -25 4 -3 4 -13 5
-22 2 -10 -4 -14 -2 -9 5 4 6 -2 11 -14 11 -11 1 -29 1 -40 2 -11 0 -18 4 -15
10 9 13 -9 11 -24 -3 -11 -10 -13 -10 -7 0 7 11 -12 17 -38 13 -4 -1 -14 4
-22 10 -8 6 -14 8 -14 4 0 -5 -10 0 -22 11 -12 10 -18 13 -13 5 6 -11 3 -11
-14 2 -13 8 -29 13 -35 11 -6 -2 -21 4 -33 15 -11 11 -24 17 -27 14 -3 -4 -6
-1 -6 5 0 7 -6 11 -12 9 -7 -1 -12 4 -10 12 3 12 1 12 -14 0 -12 -9 -15 -9
-10 -1 4 7 1 12 -9 12 -9 0 -13 5 -10 10 3 6 0 10 -8 10 -8 0 -20 7 -27 15 -7
8 -17 12 -24 8 -6 -3 -8 -3 -4 2 12 12 -12 35 -36 35 -17 0 -18 2 -6 10 13 8
12 10 -3 10 -10 0 -16 4 -13 9 3 5 -1 11 -9 15 -21 8 -19 36 3 36 14 0 15 -2
2 -10 -9 -6 -10 -10 -3 -10 6 0 15 5 19 11 4 8 9 7 15 -2 6 -10 9 -11 9 -1 0
6 5 12 11 12 5 0 7 -6 3 -12 -6 -10 -4 -10 7 0 7 6 17 12 22 12 4 0 5 -6 1
-12 -5 -9 -2 -9 9 1 11 9 17 10 17 2 0 -6 16 -11 35 -11 21 0 35 -5 36 -12 0
-10 2 -10 6 0 6 15 53 16 53 1 0 -8 6 -7 17 2 9 8 14 9 10 2 -5 -8 26 -12 123
-12 72 0 128 3 126 7 -3 5 9 9 25 10 22 2 28 -1 23 -10 -6 -10 -4 -11 7 0 7 6
34 12 60 12 26 0 51 5 54 10 3 6 12 10 18 10 7 0 6 -4 -3 -10 -12 -7 -10 -9 7
-7 12 0 19 5 17 9 -3 4 2 8 10 8 9 0 16 -6 17 -12 0 -10 2 -10 6 0 2 6 20 12
39 12 20 0 34 5 34 13 0 9 3 8 9 -2 6 -9 11 -10 15 -2 5 8 13 8 27 0 15 -7 24
-7 35 1 7 7 25 10 40 7 19 -3 24 -1 19 11 -5 13 -3 13 11 1 14 -11 18 -11 22
-1 3 10 7 10 20 0 9 -7 13 -8 9 -2 -6 10 1 12 84 17 18 1 25 6 21 16 -4 11 -1
11 16 2 12 -7 22 -8 22 -2 0 5 7 12 16 15 10 4 13 2 8 -7 -5 -8 -2 -7 9 2 14
11 17 11 17 0 0 -8 6 -5 15 7 8 10 15 15 15 10 0 -5 8 -2 17 5 11 9 14 10 9 2
-5 -9 -2 -11 8 -7 9 3 14 10 11 14 -3 5 6 7 20 4 14 -2 25 0 25 5 0 6 7 7 17
4 12 -5 14 -3 8 7 -6 10 -4 12 8 7 10 -4 17 -1 17 6 0 8 4 7 10 -3 9 -13 12
-13 23 1 6 9 18 14 26 11 8 -3 11 0 7 7 -5 7 -1 9 8 5 9 -3 16 -10 16 -14z"/>
<path d="M812 3381 c0 -3 -1 -10 -2 -16 -1 -5 -1 -27 0 -47 1 -24 -3 -38 -11
-38 -7 0 -2 -8 9 -19 12 -10 22 -24 22 -30 0 -6 7 -14 15 -17 8 -4 13 -10 10
-15 -8 -13 18 -49 35 -49 13 0 13 -1 0 -10 -12 -8 -12 -10 -1 -10 8 0 12 -3 8
-6 -3 -4 1 -13 9 -22 9 -8 13 -23 11 -33 -3 -11 0 -22 5 -26 7 -4 8 -1 3 7 -5
9 -4 11 4 6 9 -6 9 -11 -1 -24 -11 -13 -11 -14 1 -7 11 6 13 4 8 -8 -5 -12 1
-19 18 -23 14 -3 23 -9 20 -13 -2 -4 7 -19 20 -33 18 -20 21 -28 12 -37 -9
-10 -9 -12 3 -9 8 2 15 -4 15 -12 0 -8 2 -17 5 -20 16 -16 33 -43 24 -37 -6 3
-11 0 -11 -8 0 -8 4 -12 9 -9 8 5 12 -10 8 -35 -1 -8 6 -20 15 -27 9 -7 16
-15 16 -18 -3 -21 1 -26 22 -26 18 0 19 2 7 10 -8 5 -10 10 -4 10 22 0 24 30
4 50 -11 11 -20 23 -21 28 -1 4 -5 6 -9 5 -4 -1 -6 6 -3 17 3 11 10 17 15 14
6 -4 4 4 -3 17 -7 13 -13 27 -14 30 0 3 -7 12 -15 21 -37 39 -46 56 -45 90 0
20 -3 34 -6 32 -4 -2 -12 3 -19 11 -7 8 -9 15 -5 15 4 0 3 6 -3 13 -7 8 -7 18
-2 27 6 8 10 20 10 25 0 6 -5 3 -10 -5 -7 -12 -9 -10 -7 7 0 12 5 19 9 17 4
-3 8 4 8 16 0 12 5 18 10 15 6 -3 10 1 10 10 0 10 5 14 13 10 6 -4 4 0 -5 8
-10 8 -14 18 -10 23 4 4 0 3 -10 -4 -13 -10 -17 -10 -21 0 -4 10 -6 10 -6 1
-1 -7 -7 -13 -15 -13 -8 0 -17 -6 -19 -12 -5 -13 -11 16 -8 40 1 6 -2 12 -7
12 -10 0 -36 56 -31 64 2 3 -4 11 -14 18 -10 8 -17 20 -15 28 2 9 -4 14 -14
14 -10 -1 -18 1 -18 5 0 4 -6 8 -14 8 -8 0 -15 -3 -14 -6z"/>
<path d="M1804 2941 c-12 -11 -25 -17 -28 -14 -3 4 -6 -4 -6 -16 0 -12 -4 -19
-10 -16 -6 4 -10 -5 -10 -19 0 -14 5 -26 10 -26 6 0 10 -5 10 -11 0 -5 -4 -7
-10 -4 -9 6 -15 -22 -11 -52 1 -7 -3 -13 -9 -13 -5 0 -10 -12 -10 -26 0 -17
-4 -23 -12 -18 -10 6 -10 4 0 -8 11 -14 10 -18 -3 -26 -9 -5 -18 -13 -18 -18
-1 -5 -5 -8 -9 -7 -4 2 -4 -5 -1 -14 5 -12 3 -14 -8 -8 -8 4 -11 5 -7 0 4 -4
3 -14 -4 -22 -8 -11 -7 -12 6 -7 9 3 16 1 16 -5 0 -6 5 -11 10 -11 6 0 10 8
10 18 0 14 2 15 10 2 8 -12 10 -11 10 6 0 14 13 27 41 42 47 25 53 27 43 10
-5 -7 -3 -8 5 -4 7 5 10 10 7 13 -3 3 0 15 6 26 9 17 8 19 -7 13 -16 -6 -16
-4 -4 11 9 11 10 14 2 9 -9 -5 -13 -1 -14 11 0 16 -1 16 -9 -2 -7 -16 -9 -17
-9 -3 -1 9 8 23 19 31 11 8 17 17 13 20 -3 4 2 7 12 7 10 0 15 3 12 7 -4 3 1
12 11 19 12 10 13 13 3 14 -11 0 -11 3 -1 15 10 13 10 19 -4 33 -9 10 -13 22
-9 25 3 4 1 7 -5 7 -6 0 -12 7 -14 16 -3 13 -6 12 -24 -5z"/>
<path d="M817 2839 c-8 -11 -23 -22 -33 -24 -11 -1 -18 -8 -16 -14 3 -15 -15
-14 -20 1 -6 17 -38 -14 -38 -36 0 -8 -4 -18 -10 -21 -6 -3 -7 1 -4 9 3 9 1
16 -5 16 -6 0 -16 12 -21 26 -6 14 -15 22 -20 19 -6 -4 -9 -1 -8 7 3 15 -35
12 -40 -3 -2 -5 -8 -9 -13 -9 -6 0 -8 4 -5 9 7 11 -14 20 -31 14 -7 -3 -13
-12 -13 -21 0 -15 -2 -15 -11 -2 -9 12 -9 11 -3 -5 4 -11 9 -41 11 -67 3 -43
1 -48 -17 -48 -11 0 -20 5 -20 10 0 6 -9 10 -20 10 -17 0 -20 -7 -20 -38 0
-21 -3 -42 -7 -46 -4 -3 -8 -13 -9 -22 -2 -11 1 -12 11 -4 10 8 14 7 18 -2 3
-7 6 -3 6 10 1 12 6 22 13 22 6 0 3 7 -8 16 -17 14 -17 15 -1 10 10 -3 30 -6
43 -6 17 0 23 -4 18 -12 -6 -11 6 -2 46 31 3 2 -3 1 -12 -2 -10 -4 -18 -2 -18
3 0 6 6 10 13 10 8 0 7 4 -3 10 -12 8 -12 10 -1 10 11 0 11 3 1 15 -7 9 -8 15
-2 15 5 0 8 10 5 23 -4 17 -3 19 6 7 6 -9 22 -14 40 -12 16 2 32 -1 36 -7 11
-19 69 -13 83 9 8 13 23 20 45 20 24 0 28 3 17 10 -12 8 -9 10 13 10 15 0 27
5 27 11 0 8 6 7 17 -2 14 -12 16 -12 8 0 -6 11 -3 13 13 9 15 -4 19 -2 15 8
-3 8 -9 14 -15 14 -5 0 -6 5 -3 10 3 6 -1 10 -10 10 -9 0 -14 -4 -11 -8 2 -4
-4 -8 -14 -8 -14 0 -16 3 -8 13 6 7 8 13 5 13 -3 0 -12 -9 -20 -21z"/>
<path d="M435 2640 c-3 -5 -1 -10 4 -10 6 0 11 5 11 10 0 6 -2 10 -4 10 -3 0
-8 -4 -11 -10z"/>
<path d="M140 2417 c-9 -15 -10 -22 -1 -25 6 -2 11 -8 11 -13 0 -6 -4 -7 -10
-4 -6 3 -7 -1 -4 -10 4 -9 13 -14 21 -10 10 3 13 1 10 -9 -4 -9 0 -13 11 -11
9 2 18 4 20 5 1 2 10 3 20 4 9 1 23 5 29 9 8 5 11 3 8 -5 -4 -9 7 -13 37 -14
23 0 44 -6 46 -12 5 -15 42 -36 42 -24 0 14 -36 52 -44 45 -3 -3 -6 1 -6 10 0
8 -9 19 -20 22 -11 3 -20 11 -20 16 0 6 -4 8 -8 5 -5 -3 -21 5 -36 17 -37 29
-89 31 -106 4z"/>
<path d="M2050 2330 c0 -5 5 -10 11 -10 5 0 7 5 4 10 -3 6 -8 10 -11 10 -2 0
-4 -4 -4 -10z"/>
</g>
</svg>
